Coordinates
version=1
nRows=10
nColumns=63
inDegrees=yes

Units are S.I. units (second, meters, Newtons, ...)
If the header above contains a line with 'inDegrees', this indicates whether rotational values are in degrees (yes) or radians (no).

endheader
time	pelvis_tilt	pelvis_list	pelvis_rotation	pelvis_tx	pelvis_ty	pelvis_tz	hip_flexion_r	hip_adduction_r	hip_rotation_r	knee_angle_r	knee_angle_r_beta	ankle_angle_r	subtalar_angle_r	mtp_angle_r	hip_flexion_l	hip_adduction_l	hip_rotation_l	knee_angle_l	knee_angle_l_beta	ankle_angle_l	subtalar_angle_l	mtp_angle_l	L5_S1_Flex_Ext	L5_S1_Lat_Bending	L5_S1_axial_rotation	L4_L5_Flex_Ext	L4_L5_Lat_Bending	L4_L5_axial_rotation	L3_L4_Flex_Ext	L3_L4_Lat_Bending	L3_L4_axial_rotation	L2_L3_Flex_Ext	L2_L3_Lat_Bending	L2_L3_axial_rotation	L1_L2_Flex_Ext	L1_L2_Lat_Bending	L1_L2_axial_rotation	L1_T12_Flex_Ext	L1_T12_Lat_Bending	L1_T12_axial_rotation	Abs_r3	Abs_r2	Abs_r1	Abs_t1	Abs_t2	neck_flexion	neck_bending	neck_rotation	arm_flex_r	arm_add_r	arm_rot_r	elbow_flex_r	pro_sup_r	wrist_flex_r	wrist_dev_r	arm_flex_l	arm_add_l	arm_rot_l	elbow_flex_l	pro_sup_l	wrist_flex_l	wrist_dev_l
      3.53333333	     -2.78758599	     -2.65460207	     90.57511340	      0.40326224	      0.96908376	      0.55321072	      3.09731820	     -0.75568696	    -16.99942236	      6.45378970	      0.11263988	     23.82419216	     17.45800181	      0.00000000	     13.32204367	     -5.45017231	     -7.73659764	     18.27176417	      0.31890244	     38.72455311	     11.45697137	      0.00000000	     -0.21010098	     -0.06951497	      0.13895196	     -0.39017853	     -0.09245491	      0.14763645	     -0.34517490	     -0.16901870	      0.14763645	     -0.24012441	     -0.16901870	      0.12158296	     -0.19509977	     -0.14175492	      0.11289846	     -0.12005170	     -0.10767869	      0.10421397	     -1.50073029	     -0.78636723	      0.77280909	      0.00000000	      0.00000000	     21.76975092	      3.25654439	      2.58748498	     -4.52931661	    -15.77260605	     25.26483429	     31.32217059	     78.52243139	     -6.63766048	     -1.97993872	      5.67533069	    -15.95626737	     48.27857941	     37.30588672	     88.35407518	    -15.40426844	     -0.08835794
      3.55000000	     -2.88921886	     -2.69648839	     90.32169581	      0.40359062	      0.96903554	      0.55306860	      3.14692608	     -0.88313875	    -16.79145437	      6.69297373	      0.11681443	     23.13355181	     17.41873613	      0.00000000	     13.32239956	     -5.31977726	     -7.47505497	     18.26750517	      0.31882811	     38.38818607	     10.75838735	      0.00000000	     -0.20411262	     -0.06950230	      0.13367777	     -0.37905754	     -0.09243806	      0.14203263	     -0.33533662	     -0.16898789	      0.14203263	     -0.23328031	     -0.16898789	      0.11696805	     -0.18953898	     -0.14172909	      0.10861319	     -0.11662995	     -0.10765906	      0.10025833	     -1.45795602	     -0.78622389	      0.74347567	      0.00000000	      0.00000000	     21.37478216	      3.27884865	      2.89531104	     -4.44337640	    -15.89065942	     25.61703118	     31.58899070	     77.49213842	     -6.55321405	     -2.01095905	      5.76433882	    -16.09711813	     48.52372040	     37.39744268	     88.40824615	    -15.31642275	      0.01325229
      3.56666667	     -2.90676915	     -2.73838730	     90.62067277	      0.40327924	      0.96904836	      0.55305495	      3.08490005	     -0.91450812	    -17.04640648	      6.75159934	      0.11783764	     22.35337274	     17.23240988	      0.00000000	     13.47732215	     -5.18941511	     -6.80873705	     18.35369511	      0.32033241	     38.01653459	     10.35111187	      0.00000000	     -0.19056891	     -0.06165428	      0.01655041	     -0.35390552	     -0.08200020	      0.01758481	     -0.31308566	     -0.14990622	      0.01758481	     -0.21780121	     -0.14990622	      0.01448160	     -0.17696229	     -0.12572541	      0.01344720	     -0.10889108	     -0.09550248	      0.01241280	     -1.36121467	     -0.69744557	      0.09204839	      0.00000000	      0.00000000	     20.83638356	      3.52374467	      3.44957618	     -4.24621877	    -15.89087448	     25.77819420	     31.47472174	     78.24668520	     -6.51307186	     -2.46002633	      5.52460268	    -16.20006072	     47.60979138	     37.78761305	     88.58299614	    -14.46267694	      0.62933640
      3.58333333	     -2.90325330	     -2.66652110	     90.63861976	      0.40328093	      0.96914951	      0.55311564	      2.93794235	     -0.90136968	    -16.93079337	      6.74576305	      0.11773578	     21.96841479	     17.10388299	      0.00000000	     13.45610806	     -5.19176027	     -6.70775045	     18.43142649	      0.32168908	     37.97514335	     10.33588879	      0.00000000	     -0.18900257	     -0.05408246	      0.03771055	     -0.35099668	     -0.07192967	      0.04006746	     -0.31051233	     -0.13149609	      0.04006746	     -0.21601104	     -0.13149609	      0.03299674	     -0.17550779	     -0.11028495	      0.03063983	     -0.10799607	     -0.08377373	      0.02828292	     -1.35002649	     -0.61179157	      0.20973479	      0.00000000	      0.00000000	     20.29351923	      3.59452287	      3.36546403	     -4.37257628	    -15.91397162	     25.44302424	     31.57620375	     78.53407765	     -6.45883374	     -2.68694583	      5.80809587	    -16.25534043	     48.03850366	     37.89046278	     88.65480882	    -14.02484253	      1.03153531
      3.60000000	     -2.88771948	     -2.51871371	     90.71522387	      0.40321723	      0.96936364	      0.55319500	      2.72136480	     -0.87247283	    -16.80776803	      6.67821292	      0.11655680	     21.90254226	     17.03323932	      0.00000000	     13.40655766	     -5.21819638	     -6.63682342	     18.59588006	      0.32455933	     38.14929085	     10.46084577	      0.00000000	     -0.19269496	     -0.04817474	      0.06313777	     -0.35785380	     -0.06407241	      0.06708388	     -0.31657854	     -0.11713207	      0.06708388	     -0.22023107	     -0.11713207	      0.05524555	     -0.17893654	     -0.09823793	      0.05129944	     -0.11010590	     -0.07462267	      0.04735333	     -1.37640081	     -0.54496231	      0.35115333	      0.00000000	      0.00000000	     19.77144978	      3.67115568	      3.18958546	     -4.47614014	    -15.96289093	     25.42895294	     31.61635215	     78.48875859	     -6.70364130	     -2.99443684	      6.14954788	    -16.25871829	     48.59605600	     37.85895393	     88.68455335	    -13.67701054	      1.27657791
      3.61666667	     -2.83522945	     -2.36540882	     90.81376655	      0.40309133	      0.96954326	      0.55335698	      2.52859167	     -0.81894946	    -16.92345585	      6.57742455	      0.11479771	     22.36154579	     17.05181806	      0.00000000	     13.33114761	     -5.24163290	     -6.37198903	     18.68321125	      0.32608355	     38.36465925	     10.30922943	      0.00000000	     -0.19597173	     -0.03881769	      0.09573137	     -0.36393910	     -0.05162753	      0.10171458	     -0.32196195	     -0.09438133	      0.10171458	     -0.22397609	     -0.09438133	      0.08376495	     -0.18197935	     -0.07915703	      0.07778174	     -0.11197825	     -0.06012860	      0.07179853	     -1.39980646	     -0.43911347	      0.53242915	      0.00000000	      0.00000000	     19.34791042	      3.61753630	      2.91965641	     -4.73981467	    -15.83278832	     24.25673554	     31.72695646	     79.76459070	     -6.57846702	     -2.92636518	      6.51021036	    -16.19184830	     49.34686993	     37.71143482	     88.66621685	    -13.89368945	      1.19499170
      3.63333333	     -2.84626659	     -2.17883346	     91.04142749	      0.40281809	      0.96980446	      0.55351395	      2.30561510	     -0.84020962	    -17.07145013	      6.43840431	      0.11237135	     23.01393596	     17.07900346	      0.00000000	     13.22209040	     -5.16846078	     -6.02264889	     18.73691161	      0.32702080	     38.65277958	     10.15443553	      0.00000000	     -0.20473759	     -0.04038022	      0.03736540	     -0.38021818	     -0.05370569	      0.03970073	     -0.33636339	     -0.09818046	      0.03970073	     -0.23399459	     -0.09818046	      0.03269472	     -0.19011933	     -0.08234334	      0.03035939	     -0.11698706	     -0.06254896	      0.02802405	     -1.46242014	     -0.45678910	      0.20781513	      0.00000000	      0.00000000	     18.98183081	      3.62060583	      2.90085808	     -4.33009948	    -16.10681426	     26.48270932	     31.45817130	     77.82468127	     -7.42920088	     -3.61668739	      6.43913258	    -16.12919449	     48.98914720	     37.58324873	     88.64438256	    -14.16363666	      0.74314217
      3.65000000	     -2.74945695	     -2.00871819	     91.55818863	      0.40235308	      0.96997587	      0.55368169	      2.06856289	     -0.74172487	    -17.73732186	      6.23726808	      0.10886086	     23.86677871	     17.27386747	      0.00000000	     13.17751942	     -5.18578351	     -5.56334188	     18.78903056	      0.32793045	     39.01804522	     10.41248498	      0.00000000	     -0.21776664	     -0.02973927	     -0.03996937	     -0.40441443	     -0.03955322	     -0.04246746	     -0.35776881	     -0.07230805	     -0.04246746	     -0.24888549	     -0.07230805	     -0.03497320	     -0.20221810	     -0.06064431	     -0.03247511	     -0.12443186	     -0.04606612	     -0.02997703	     -1.55548534	     -0.33641652	     -0.22229764	      0.00000000	      0.00000000	     18.69923135	      3.48592208	      2.80917501	     -4.56882209	    -15.83705779	     24.84175699	     31.65784635	     79.51772217	     -7.16062105	     -2.91575971	      6.48816867	    -16.03388497	     48.88456602	     37.43665799	     88.56849082	    -14.80298046	      0.19212499
      3.66666667	     -2.70191576	     -1.89381783	     92.04060283	      0.40190963	      0.97019218	      0.55377607	      1.90220863	     -0.69552462	    -18.27862472	      6.01830570	      0.10503925	     24.65777938	     17.39604434	      0.00000000	     13.11065908	     -5.14593596	     -5.11864319	     18.70693568	      0.32649762	     39.08006534	     10.48599908	      0.00000000	     -0.22793805	     -0.02832206	     -0.15899617	     -0.42330375	     -0.03766834	     -0.16893343	     -0.37447942	     -0.06886226	     -0.16893343	     -0.26051039	     -0.06886226	     -0.13912165	     -0.21166327	     -0.05775435	     -0.12918439	     -0.13024380	     -0.04387088	     -0.11924713	     -1.62813867	     -0.32038484	     -0.88428900	      0.00000000	      0.00000000	     18.49998165	      3.59707334	      2.93429289	     -4.25843372	    -15.85641831	     25.86121592	     31.42589014	     78.81714457	     -7.56973142	     -2.82529317	      6.28117077	    -15.91592689	     48.09663180	     37.25363639	     88.49220915	    -15.72107380	     -0.78394758
      3.68333333	     -2.60679140	     -1.82652801	     92.20617133	      0.40171828	      0.97034425	      0.55375043	      1.83908281	     -0.59159989	    -18.35638313	      5.81611596	      0.10151037	     25.41348703	     17.41047914	      0.00000000	     12.98204671	     -5.21642753	     -5.08269066	     18.53885432	      0.32356405	     39.16796776	     10.51400836	      0.00000000	     -0.23371803	     -0.01964347	     -0.19142870	     -0.43403776	     -0.02612581	     -0.20339299	     -0.38397536	     -0.04776113	     -0.20339299	     -0.26711634	     -0.04776113	     -0.16750011	     -0.21703057	     -0.04005696	     -0.15553582	     -0.13354649	     -0.03042773	     -0.14357152	     -1.66942455	     -0.22221085	     -1.06466899	      0.00000000	      0.00000000	     18.43318884	      3.67042882	      2.85281174	     -4.19687560	    -15.78926876	     25.84774490	     31.27412776	     78.78487452	     -7.65061903	     -2.67549129	      6.34294156	    -15.80804165	     47.72371894	     37.18178167	     88.36767207	    -15.98136915	     -1.02621173
